<?xml version="1.0" encoding="UTF-8"?>
<svg width="34px" height="34px" viewBox="0 0 34 34" version="1.1" xmlns="http://www.w3.org/2000/svg" xmlns:xlink="http://www.w3.org/1999/xlink">
    <!-- Generator: Sketch 59.1 (86144) - https://sketch.com -->
    <title>instagram</title>
    <desc>Created with Sketch.</desc>
    <defs>
        <path d="M0,15.3599982 C0,6.87690504 6.87690504,0 15.3599982,0 C23.8430913,0 30.7199963,6.87690504 30.7199963,15.3599982 C30.7199963,23.8430913 23.8430913,30.7199963 15.3599982,30.7199963 C6.87690504,30.7199963 0,23.8430913 0,15.3599982 Z" id="path-1"></path>
    </defs>
    <g id="Page-1" stroke="none" stroke-width="1" fill="none" fill-rule="evenodd">
        <g id="Village" transform="translate(-1259.000000, -30.000000)">
            <g id="instagram" transform="translate(1260.000000, 31.000000)">
                <circle id="Oval" stroke="#9B9B9B" stroke-width="0.799999952" cx="16" cy="16" r="16"></circle>
                <g id="Shape-Clipped" transform="translate(1.000000, 1.000000)">
                    <mask id="mask-2" fill="white">
                        <use xlink:href="#path-1"></use>
                    </mask>
                    <g id="path-1"></g>
                    <path d="M15.3607662,7.16799915 C13.1359326,7.16799915 12.856719,7.17772727 11.9828967,7.21749303 C11.1107811,7.25742941 10.5154896,7.39550017 9.99460962,7.59808357 C9.45580937,7.8073231 8.99875931,8.08721926 8.54341594,8.54273332 C8.08773126,8.99807669 7.8078351,9.45512668 7.59791289,9.99375625 C7.39481749,10.5148069 7.25657603,11.1102691 7.21732228,11.9820434 C7.17823927,12.8558657 7.16799915,13.13525 7.16799915,15.3600835 C7.16799915,17.5849171 7.1778979,17.8632773 7.21749303,18.7370996 C7.25760003,19.6092153 7.3956708,20.2045067 7.59808357,20.7253867 C7.80749373,21.264187 8.08738995,21.721237 8.54290394,22.1765804 C8.99807669,22.6322651 9.45512668,22.912844 9.99358562,23.1220835 C10.5148069,23.3246669 11.1102691,23.4627376 11.9822141,23.5026741 C12.8560364,23.5424398 13.1350793,23.5521678 15.3597422,23.5521678 C17.5847464,23.5521678 17.8631066,23.5424398 18.736929,23.5026741 C19.6090446,23.4627376 20.2050187,23.3246669 20.7262401,23.1220835 C21.2648697,22.912844 21.721237,22.6322651 22.1764096,22.1765804 C22.6320944,21.721237 22.9119906,21.264187 23.1219128,20.7255575 C23.3233015,20.2045067 23.4615429,19.6090446 23.5025033,18.7372703 C23.5417571,17.8634479 23.5519972,17.5849171 23.5519972,15.3600835 C23.5519972,13.13525 23.5417571,12.8560364 23.5025033,11.9822141 C23.4615429,11.1100984 23.3233015,10.5148069 23.1219128,9.99392687 C22.9119906,9.45512668 22.6320944,8.99807669 22.1764096,8.54273332 C21.720725,8.08704864 21.2650403,7.80715235 20.7257281,7.59808357 C20.2034827,7.39550017 19.6078499,7.25742941 18.7357342,7.21749303 C17.8619119,7.17772727 17.5837224,7.16799915 15.3582062,7.16799915 L15.3607662,7.16799915 Z M14.625868,8.64428102 C14.8439822,8.64393971 15.0873554,8.64428102 15.3607662,8.64428102 C17.5480527,8.64428102 17.807298,8.65213177 18.671051,8.69138546 C19.4697791,8.72790853 19.9032769,8.86137123 20.1920479,8.97350043 C20.5743452,9.12198195 20.8469027,9.2994771 21.133455,9.58620007 C21.4201779,9.87292298 21.5976731,10.1459925 21.7464959,10.5282898 C21.8586251,10.8167194 21.9922584,11.2502172 22.0286109,12.0489454 C22.0678646,12.9125276 22.076398,13.1719436 22.076398,15.3582062 C22.076398,17.5444686 22.0678646,17.8038847 22.0286109,18.6674669 C21.9920878,19.4661951 21.8586251,19.8996929 21.7464959,20.1881226 C21.5980144,20.5704198 21.4201779,20.842636 21.133455,21.1291883 C20.846732,21.4159112 20.5745159,21.5934063 20.1920479,21.7418878 C19.9036183,21.854529 19.4697791,21.9876504 18.671051,22.0241734 C17.8074687,22.0634272 17.5480527,22.0719606 15.3607662,22.0719606 C13.173309,22.0719606 12.9140637,22.0634272 12.0504814,22.0241734 C11.2517532,21.9873091 10.8182554,21.8538464 10.5293138,21.7417172 C10.1470165,21.5932357 9.87394705,21.4157406 9.58722407,21.1290176 C9.3005011,20.8422946 9.12300595,20.5699078 8.97418306,20.1874399 C8.86205392,19.8990102 8.72842053,19.4655124 8.69206821,18.6667842 C8.65281446,17.803202 8.64496371,17.543786 8.64496371,15.3561581 C8.64496371,13.1685303 8.65281446,12.9104796 8.69206821,12.0468974 C8.72859122,11.2481692 8.86205392,10.8146714 8.97418306,10.5259004 C9.12266458,10.1436031 9.3005011,9.87053361 9.58722407,9.5838107 C9.87394705,9.29708772 10.1470165,9.11959258 10.5293138,8.97076975 C10.8180847,8.85812854 11.2517532,8.72500722 12.0504814,8.68831346 C12.8062012,8.65417977 13.0990683,8.64393971 14.625868,8.64223295 L14.625868,8.64428102 Z M19.7336325,10.0045084 C19.190907,10.0045084 18.7505824,10.4443209 18.7505824,10.9872171 C18.7505824,11.5299428 19.190907,11.9702672 19.7336325,11.9702672 C20.2763582,11.9702672 20.7166827,11.5299428 20.7166827,10.9872171 C20.7166827,10.4444916 20.2763582,10.004167 19.7336325,10.004167 L19.7336325,10.0045084 Z M15.3607662,11.1531068 C13.0374569,11.1531068 11.1537895,13.0367743 11.1537895,15.3600835 C11.1537895,17.6833928 13.0374569,19.5662068 15.3607662,19.5662068 C17.6840755,19.5662068 19.5670601,17.6833928 19.5670601,15.3600835 C19.5670601,13.0367743 17.6839048,11.1531068 15.3605955,11.1531068 L15.3607662,11.1531068 Z M15.3607662,12.6293887 C16.8687924,12.6293887 18.0914609,13.8518866 18.0914609,15.3600835 C18.0914609,16.8681097 16.8687924,18.0907783 15.3607662,18.0907783 C13.8525694,18.0907783 12.6300714,16.8681097 12.6300714,15.3600835 C12.6300714,13.8518866 13.8525694,12.6293887 15.3607662,12.6293887 Z" id="Shape" fill="#9B9B9B" fill-rule="nonzero" mask="url(#mask-2)"></path>
                </g>
            </g>
        </g>
    </g>
</svg>