<?xml version="1.0" encoding="UTF-8"?>
<svg width="34px" height="34px" viewBox="0 0 34 34" version="1.1" xmlns="http://www.w3.org/2000/svg" xmlns:xlink="http://www.w3.org/1999/xlink">
    <!-- Generator: Sketch 59.1 (86144) - https://sketch.com -->
    <title>phone</title>
    <desc>Created with Sketch.</desc>
    <g id="Page-1" stroke="none" stroke-width="1" fill="none" fill-rule="evenodd">
        <g id="Village" transform="translate(-1299.000000, -30.000000)">
            <g id="phone" transform="translate(1300.000000, 31.000000)">
                <circle id="Oval" stroke="#9B9B9B" stroke-width="0.799999952" cx="16" cy="16" r="16"></circle>
                <g id="Group-7" transform="translate(8.000000, 8.000000)" fill="#9B9B9B" fill-rule="nonzero">
                    <path d="M13.1525375,10.4444 C12.5873375,9.88640004 11.8817375,9.88640004 11.3201375,10.4444 C10.8917375,10.8692 10.4633375,11.294 10.0421375,11.726 C9.92693748,11.8448 9.82973748,11.87 9.68933748,11.7908 C9.41213748,11.6396 9.11693748,11.5172 8.85053748,11.3516 C7.60853747,10.5704 6.56813747,9.56600003 5.64653747,8.43560003 C5.18933747,7.87400003 4.78253746,7.27280003 4.49813746,6.59600003 C4.44053746,6.45920002 4.45133746,6.36920002 4.56293746,6.25760002 C4.99133747,5.84360002 5.40893747,5.41880002 5.83013747,4.99400002 C6.41693747,4.40360002 6.41693747,3.71240002 5.82653747,3.11840001 C5.49173747,2.78000001 5.15693747,2.44880001 4.82213746,2.11040001 C4.47653746,1.76480001 4.13453746,1.41560001 3.78533746,1.07360001 C3.22013746,0.522800005 2.51453746,0.522800005 1.95293746,1.07720001 C1.52093745,1.50200001 1.10693745,1.93760001 0.667737451,2.35520001 C0.26093745,2.74040001 0.0557374489,3.21200001 0.0125374488,3.76280002 C-0.0558625514,4.65920002 0.163737449,5.50520002 0.47333745,6.32960002 C1.10693745,8.03600003 2.07173746,9.55160003 3.24173746,10.9412 C4.82213746,12.8204 6.70853747,14.3072001 8.91533748,15.3800001 C9.90893748,15.8624001 10.9385375,16.2332001 12.0581375,16.2944001 C12.8285375,16.3376001 13.4981375,16.1432001 14.0345375,15.5420001 C14.4017375,15.1316001 14.8157375,14.7572001 15.2045375,14.3648001 C15.7805375,13.7816 15.7841375,13.076 15.2117375,12.5 C14.5277375,11.8124 13.8401375,11.1284 13.1525375,10.4444 Z" id="Path"></path>
                </g>
            </g>
        </g>
    </g>
</svg>